<svg width="139" height="43" viewBox="0 0 139 43" fill="none" xmlns="http://www.w3.org/2000/svg">
<g id="Layer_1" clip-path="url(#clip0_396_23693)">
<path id="Vector" d="M70.4747 19.5596C69.8346 19.3285 69.2049 19.1638 68.634 18.8795C68.0221 18.5767 67.5741 18.0772 67.5562 17.3041C67.5434 16.81 67.7687 16.4301 68.1143 16.1166C68.7338 15.5561 69.4967 15.3648 70.2801 15.2266C70.4414 15.1974 70.6001 15.1735 70.7793 15.1443C70.8331 14.512 70.8766 13.8877 70.9355 13.266C71.1736 10.7635 71.3912 8.25827 71.6625 5.76103C71.8469 4.06609 72.1105 2.37912 72.3333 0.686844C72.3794 0.344138 72.556 0.107697 72.876 0.102383C73.3727 0.0970701 73.877 0.115667 74.3608 0.213962C74.7807 0.298975 74.9215 0.604489 74.8677 1.05346C74.814 1.50509 74.7474 1.95406 74.6809 2.44288C75.0316 2.26489 75.349 2.10018 75.669 1.94609C77.3024 1.15707 79.0022 0.665591 80.8225 0.726694C82.4481 0.782484 83.9355 1.22614 85.1003 2.48539C86.0194 3.48163 86.3676 4.72228 86.4034 6.06389C86.4725 8.78429 85.5176 11.1354 83.8689 13.1863C81.1092 16.6187 77.5584 18.6378 73.3163 19.3657C73.1013 19.4029 73.0578 19.5012 73.045 19.6978C72.94 21.5202 72.8248 23.34 72.7173 25.1625C72.6507 26.2836 72.5918 27.4073 72.533 28.5311C72.5202 28.8021 72.3947 28.988 72.1515 29.0412C71.6267 29.1554 71.0942 29.1846 70.5796 28.9694C70.106 28.7729 69.9473 28.4859 69.978 27.9573C70.1444 25.1731 70.3083 22.3863 70.4721 19.6021C70.4721 19.5623 70.4721 19.5224 70.4721 19.5596H70.4747ZM73.1474 18.2154C73.7311 18.2233 75.5615 17.7505 76.1759 17.437C78.4314 16.284 80.3104 14.6608 81.7543 12.5222C82.996 10.6838 83.7665 8.66208 83.7409 6.38268C83.7205 4.71431 83.083 3.39928 81.5828 2.64213C80.4512 2.07361 79.2455 2.02579 78.0422 2.26223C76.7903 2.5093 75.6818 3.14158 74.6066 3.82434C74.5272 3.87481 74.4581 4.00499 74.4479 4.10594C74.1125 7.41877 73.7848 10.7316 73.4571 14.0444C73.4239 14.3871 73.4085 14.7298 73.3855 15.0354C74.604 15.2054 75.7791 15.3621 76.9516 15.5375C77.3408 15.5959 77.4995 15.8324 77.4483 16.1963C77.4022 16.5071 77.1411 16.6851 76.7827 16.6347C76.2553 16.5603 75.7305 16.4646 75.2031 16.4009C74.5759 16.3238 73.9487 16.2707 73.2933 16.2043C73.2421 16.903 73.196 17.5432 73.1474 18.2127V18.2154ZM70.6974 16.2973C70.0394 16.3982 69.4302 16.5178 68.9053 16.8977C68.5776 17.1341 68.5469 17.3706 68.8337 17.6522C69.3073 18.1197 69.9089 18.2446 70.554 18.3083C70.6027 17.6229 70.6487 16.9747 70.6974 16.2973Z" fill="black"/>
<path id="Vector_2" d="M94.3885 15.1115C94.4218 15.0982 94.4346 15.0982 94.4397 15.0902C95.0106 14.1179 95.8836 14.357 96.7156 14.5084C97.0714 14.5722 97.1585 14.8378 97.0894 15.247C96.9409 16.1236 96.7719 16.9977 96.6849 17.8823C96.5953 18.7936 96.6695 19.7075 96.9895 20.5762C97.0868 20.8392 97.2148 21.1022 97.3786 21.328C97.691 21.7584 98.0468 21.8461 98.5128 21.607C98.8788 21.421 99.2424 21.2138 99.5649 20.9587C100.108 20.5284 100.615 20.0475 101.145 19.5959C101.319 19.4471 101.362 19.2691 101.388 19.046C101.529 17.7708 101.659 16.4956 101.851 15.2284C101.961 14.4978 102.169 14.3464 102.88 14.3118C103.236 14.2932 103.597 14.3118 103.95 14.3676C104.416 14.4393 104.521 14.6412 104.46 15.1221C104.293 16.4478 104.117 17.7708 103.981 19.0991C103.912 19.7792 103.981 20.454 104.337 21.0677C104.711 21.7159 104.915 21.8726 105.737 21.7345C106.375 21.6282 107.007 21.3307 107.581 21.0039C108.402 20.5337 109.165 19.9572 109.959 19.4312C110.102 19.3355 110.12 19.2425 110.087 19.0672C109.716 17.1465 109.357 15.2204 108.999 13.297C108.932 12.9383 109.117 12.6647 109.48 12.6249C110.007 12.5691 110.54 12.5398 111.072 12.5345C111.398 12.5319 111.536 12.7285 111.602 13.1535C111.81 14.4606 111.979 15.7783 112.242 17.0747C112.491 18.2968 112.826 19.5002 113.164 20.6984C113.266 21.065 113.474 21.4157 113.686 21.7345C113.978 22.1675 114.316 22.1994 114.7 21.8434C114.943 21.6202 115.189 21.3705 115.345 21.0836C116.003 19.8881 116.648 18.6847 117.26 17.4626C118.008 15.9669 118.714 14.4473 119.439 12.941C119.559 12.6913 119.728 12.492 120.028 12.5133C120.445 12.5452 120.647 12.9755 120.44 13.3953C120.122 14.0355 119.784 14.6678 119.475 15.3107C118.65 17.0163 117.854 18.7351 117.007 20.4274C116.584 21.2722 116.111 22.1064 115.368 22.7095C115.056 22.9618 114.723 23.2036 114.372 23.3869C113.412 23.889 112.524 23.7057 111.784 22.8954C111.321 22.3854 111.011 21.777 110.755 21.1367C110.665 20.9136 110.578 20.6851 110.486 20.4433C110 20.7807 109.529 21.1155 109.047 21.4343C107.852 22.2286 106.595 22.9007 105.182 23.1452C104.636 23.2408 104.053 23.2488 103.507 23.1558C102.496 22.9831 101.938 22.2366 101.603 21.2828C101.554 21.1447 101.521 21.0012 101.477 20.8578C100.993 21.243 100.538 21.6335 100.056 21.9895C99.2731 22.566 98.436 23.0309 97.4606 23.1345C96.1012 23.2806 95.0464 22.6085 94.537 21.2802C94.1248 20.2122 94.071 19.0938 94.1427 17.962C94.153 17.7867 94.1632 17.6114 94.1786 17.3404C93.8509 17.7415 93.5846 18.0683 93.3158 18.3951C92.0537 19.9226 90.6994 21.3493 89.084 22.4863C88.3826 22.9804 87.6504 23.3391 86.7902 23.4746C85.2106 23.7243 84.1789 22.7653 83.8538 21.4263C83.4058 19.5773 83.8026 17.8531 84.7037 16.2326C85.4615 14.8697 86.4984 13.8443 87.9934 13.3979C89.4271 12.9702 90.8198 13.1695 92.1484 13.7964C92.8345 14.1205 93.4694 14.5536 94.1274 14.9388C94.2246 14.9946 94.3142 15.061 94.3936 15.1141L94.3885 15.1115ZM93.7997 16.0758C92.8678 15.4143 91.982 14.8644 90.9785 14.5722C90.5791 14.4553 90.1567 14.365 89.7471 14.3782C89.0226 14.4021 88.4619 14.8139 87.9909 15.3639C87.2305 16.2512 86.8004 17.3085 86.5393 18.4456C86.3038 19.479 86.2142 20.5177 86.547 21.5512C86.7313 22.1277 87.0513 22.303 87.6069 22.0958C87.8833 21.9922 88.1445 21.8354 88.3954 21.676C89.4911 20.9694 90.4178 20.0555 91.2806 19.0725C92.1331 18.1028 92.9472 17.096 93.8022 16.0758H93.7997Z" fill="black"/>
<path id="Vector_3" d="M24.7466 19.1441C25.0948 18.6022 25.3943 18.1267 25.7041 17.6564C26.6564 16.2139 27.7112 14.8696 29.0373 13.7698C29.6773 13.2384 30.3967 12.9542 31.2031 12.9037C32.3065 12.8346 33.0541 13.4802 33.6761 14.3117C34.48 15.385 34.8871 16.6575 35.3044 17.9221C35.5296 18.6022 35.7268 19.3035 36.0493 19.9332C36.6894 21.1924 37.6929 21.49 38.9115 20.8258C39.3134 20.6053 39.6667 20.2865 40.043 20.0155C40.2555 19.8641 40.3118 19.6516 40.3374 19.3886C40.5269 17.3775 41.3256 15.6533 42.8284 14.3728C44.4796 12.9648 46.3869 12.8453 48.33 13.6157C49.1799 13.9531 49.9582 14.4924 50.7672 14.9413C50.8568 14.9918 50.9387 15.0529 51.0155 15.1061C51.0488 15.0928 51.0718 15.0901 51.0846 15.0768C51.2971 14.8271 51.4379 14.4552 51.8142 14.4499C52.3493 14.4419 52.892 14.4578 53.422 14.5322C53.7164 14.5747 53.7983 14.8749 53.7189 15.2601C53.6063 15.8207 53.4732 16.3786 53.3964 16.9444C53.23 18.1638 53.2069 19.3779 53.6165 20.5601C53.6959 20.7886 53.7983 21.0118 53.9263 21.2137C54.2668 21.745 54.6815 21.8805 55.2166 21.567C55.7491 21.2562 56.2636 20.9028 56.7475 20.515C57.216 20.1404 57.6307 19.6941 58.071 19.2823C58.1683 19.192 58.2656 19.0884 58.3834 19.0299C58.6291 18.905 58.8672 18.9396 59.0439 19.1734C59.218 19.4018 59.2308 19.6702 59.0388 19.8747C57.8662 21.0994 56.6502 22.2737 55.0527 22.8874C52.7871 23.7561 51.2945 22.4649 50.9208 20.4034C50.7851 19.6516 50.8132 18.8652 50.7723 18.0948C50.7595 17.8769 50.7723 17.6564 50.7723 17.3961C50.6955 17.4811 50.634 17.5422 50.5777 17.6113C49.2004 19.3301 47.7668 20.9852 45.985 22.2737C45.624 22.534 45.2528 22.7811 44.8713 23.0069C44.1852 23.416 43.4223 23.5356 42.6492 23.4851C41.6712 23.424 41.0491 22.8077 40.6498 21.923C40.5499 21.7051 40.4885 21.4687 40.3989 21.2084C40.3042 21.2748 40.2146 21.3332 40.1275 21.397C38.9243 22.3082 37.5598 22.526 36.1287 22.3188C34.8435 22.1329 33.9475 21.3279 33.4022 20.1377C33.1181 19.5214 32.9542 18.8439 32.7187 18.201C32.4345 17.42 32.1606 16.6283 31.8227 15.8712C31.6358 15.4541 31.349 15.0795 31.07 14.7155C30.7705 14.3223 30.3711 14.2108 29.9487 14.4499C29.5519 14.6757 29.1704 14.9599 28.8427 15.2867C27.7906 16.3387 26.956 17.5767 26.1905 18.8599C25.5812 19.8774 24.995 20.9108 24.442 21.9628C24.2269 22.3693 23.9479 22.5818 23.5306 22.5898C23.0723 22.5978 22.6115 22.5686 22.1533 22.5261C21.8742 22.4995 21.695 22.1966 21.7309 21.8858C21.9408 20.1271 22.1891 18.3737 22.353 16.6124C22.4554 15.5178 22.44 14.4127 22.4605 13.3128C22.4682 12.9568 22.6576 12.6752 22.9981 12.6726C23.4768 12.6699 23.9607 12.6726 24.4369 12.723C24.9412 12.7762 25.0922 12.9409 25.0897 13.4616C25.0846 14.4153 25.0641 15.3717 25.0078 16.3228C24.9514 17.2314 24.8414 18.1373 24.7466 19.1362V19.1441ZM50.4011 16.0571C49.4001 15.3398 48.3914 14.7607 47.2445 14.4578C46.2538 14.1975 45.4345 14.4897 44.7408 15.2362C43.9523 16.0864 43.5043 17.1224 43.2226 18.2435C42.941 19.3567 42.8258 20.4751 43.1945 21.5962C43.366 22.1196 43.6886 22.3029 44.1929 22.1063C44.5436 21.9708 44.8816 21.7822 45.1913 21.5617C47.265 20.0952 48.8138 18.0895 50.4011 16.0545V16.0571Z" fill="black"/>
<path id="Vector_4" d="M19.0865 15.5016C19.5857 15.4193 20.067 15.3396 20.5509 15.2599C20.6712 15.2386 20.7941 15.2147 20.9144 15.2041C21.2882 15.1669 21.5032 15.3289 21.5544 15.677C21.6005 15.9905 21.4316 16.2481 21.0936 16.3119C20.4408 16.4368 19.7829 16.5351 19.0942 16.652C19.0865 16.7343 19.0737 16.8246 19.0712 16.915C19.0507 18.9207 19.0481 20.9265 19.0046 22.9323C18.9483 25.4348 18.8587 27.9374 18.7844 30.4399C18.7768 30.7136 18.6641 30.9367 18.4056 30.9898C17.9268 31.0855 17.4404 31.1705 16.9514 31.1997C16.4522 31.2316 16.2321 30.9872 16.2474 30.4665C16.2961 28.6839 16.3652 26.9039 16.4138 25.1213C16.4497 23.8169 16.4804 22.5125 16.4957 21.2081C16.5111 19.9223 16.506 18.6391 16.5085 17.3533C16.5085 17.271 16.5009 17.1859 16.4957 17.0744C15.7866 17.1886 15.0928 17.3002 14.4016 17.4144C11.8979 17.8288 9.39412 18.2513 6.88781 18.6524C6.57292 18.7029 6.45516 18.8118 6.40396 19.1439C5.8177 22.9508 5.45929 26.7817 5.31593 30.6339C5.30057 31.0297 5.0932 31.2422 4.74759 31.2263C4.43014 31.2103 4.20742 30.9633 4.2279 30.6046C4.31238 29.0585 4.35846 27.507 4.50951 25.9688C4.73479 23.7133 5.03944 21.4631 5.30825 19.213C5.31849 19.1306 5.30825 19.0482 5.30825 18.934C4.35078 19.0881 3.40356 19.2369 2.45889 19.3883C2.17472 19.4335 1.89311 19.4786 1.60895 19.5238C1.25822 19.5796 1.00477 19.4255 0.95101 19.1226C0.884448 18.7587 1.07133 18.485 1.4451 18.4213C2.36417 18.2645 3.28323 18.1158 4.2023 17.9643C4.55559 17.9059 4.90632 17.8209 5.26217 17.7943C5.51305 17.7757 5.57449 17.6509 5.61802 17.4277C5.83562 16.3491 6.04299 15.2652 6.30411 14.1972C7.02349 11.2563 7.99376 8.41637 9.55796 5.82614C10.5692 4.15246 11.8108 2.72319 13.5286 1.8093C14.033 1.54098 14.5373 1.24609 15.1389 1.25406C15.9607 1.26735 16.5495 1.69772 17.0052 2.36188C17.6171 3.25186 17.9243 4.27466 18.1547 5.32138C18.5771 7.23948 18.7691 9.19211 18.8894 11.1527C18.9713 12.5076 18.9969 13.8651 19.0507 15.2227C19.0533 15.305 19.0712 15.3874 19.0865 15.499V15.5016ZM16.4471 15.9373C16.4471 15.3024 16.4599 14.7206 16.4471 14.1361C16.3882 11.7345 16.2039 9.34619 15.7559 6.98709C15.5716 6.00945 15.3872 5.02649 14.9315 4.13386C14.3581 3.01276 13.7078 2.87462 12.7734 3.68489C11.2911 4.9707 10.2697 6.61251 9.43252 8.39246C8.31377 10.7702 7.61743 13.294 7.03885 15.8576C6.91597 16.3996 6.81357 16.9468 6.69068 17.5472C9.99317 17.0026 13.2291 16.4686 16.4497 15.9373H16.4471Z" fill="black"/>
<path id="Vector_5" d="M130.88 15.1394C131.118 14.8153 131.31 14.4301 131.745 14.4248C132.213 14.4195 132.687 14.4275 133.148 14.4965C133.534 14.555 133.619 14.8339 133.542 15.3068C133.388 16.2446 133.219 17.185 133.132 18.1335C133.056 18.9942 133.173 19.8497 133.483 20.6652C133.555 20.8512 133.639 21.0372 133.744 21.2019C134.095 21.7518 134.494 21.866 135.06 21.5712C136.061 21.0531 136.891 20.296 137.689 19.499C137.838 19.3529 137.976 19.1935 138.14 19.0686C138.378 18.8906 138.68 18.9411 138.859 19.1563C139.046 19.3821 139.054 19.6796 138.839 19.9054C137.815 20.9814 136.729 21.9856 135.408 22.6604C134.633 23.0562 133.808 23.2953 132.943 23.0908C131.783 22.8145 131.169 21.9484 130.841 20.8246C130.534 19.77 130.549 18.6887 130.624 17.6048C130.629 17.5357 130.634 17.464 130.644 17.3285C130.234 17.8253 129.866 18.2796 129.492 18.7232C128.255 20.1924 126.911 21.5366 125.34 22.6232C124.615 23.1253 123.839 23.4202 122.971 23.4972C121.807 23.6008 120.811 22.9446 120.401 21.7199C119.974 20.4368 120.066 19.143 120.455 17.8731C120.906 16.4066 121.64 15.1076 122.867 14.199C124.628 12.8946 126.538 12.8893 128.468 13.7314C129.208 14.0555 129.886 14.5257 130.59 14.9349C130.688 14.9907 130.775 15.0624 130.882 15.1368L130.88 15.1394ZM130.229 16.056C129.19 15.3174 128.148 14.7117 126.95 14.4328C126.074 14.2282 125.334 14.4806 124.7 15.1076C123.747 16.0507 123.263 17.2541 122.977 18.5559C122.751 19.5813 122.677 20.6121 123.035 21.6269C123.207 22.1158 123.512 22.2938 123.993 22.1184C124.326 21.9962 124.651 21.8209 124.943 21.619C127.057 20.1499 128.622 18.1175 130.229 16.0586V16.056Z" fill="black"/>
<path id="Vector_6" d="M102.965 12.6155C102.729 12.5597 102.376 12.4959 102.038 12.3843C101.702 12.2728 101.564 11.9354 101.682 11.6192C101.79 11.3323 102.069 11.2181 102.396 11.327C103.31 11.6325 104.278 11.319 104.854 10.53C105.112 10.1767 105.407 10.1076 105.691 10.3334C105.947 10.5353 105.98 10.8913 105.732 11.2101C105.051 12.0788 104.165 12.5464 102.962 12.6155H102.965Z" fill="black"/>
<g id="Group 2608567">
<path id="Vector_7" d="M27.9314 37.7956C28.0441 37.8913 28.1772 37.971 28.2642 38.0879C29.127 39.2727 29.9846 40.4655 30.8422 41.6531C30.9011 41.7328 30.9651 41.8098 31.0803 41.9586V37.862H31.385V42.5882C31.1776 42.6918 31.088 42.5404 30.9907 42.4022C30.128 41.2041 29.2627 40.0059 28.3948 38.8078C28.3359 38.7254 28.2719 38.6484 28.1567 38.497V42.6068C28.0389 42.6121 27.9596 42.6174 27.8572 42.6201V37.878C27.8828 37.8488 27.9084 37.8222 27.9314 37.793V37.7956Z" fill="black"/>
<path id="Vector_8" d="M72.3103 42.6191V37.8105C73.0962 37.8504 73.8771 37.8291 74.6348 37.946C75.2877 38.047 75.7408 38.5172 75.9891 39.1628C76.2349 39.8083 76.2426 40.4725 76.0506 41.1287C75.792 42.008 75.1187 42.5606 74.215 42.6111C73.5929 42.6456 72.9682 42.6191 72.3103 42.6191ZM72.6559 42.3082C73.2191 42.3082 73.7516 42.3401 74.279 42.3003C75.0957 42.2392 75.705 41.5352 75.7946 40.608C75.9046 39.463 75.5206 38.6049 74.7373 38.2941C74.0563 38.0231 73.3523 38.2064 72.6559 38.1506V42.3082Z" fill="black"/>
<path id="Vector_9" d="M59.6967 40.2512C59.7351 42.1959 58.1376 43.0593 56.6963 42.528C55.831 42.2065 55.4239 41.4919 55.342 40.5833C55.3087 40.2007 55.3343 39.7916 55.4291 39.4197C55.7132 38.2986 56.6784 37.6557 57.7818 37.8018C58.88 37.9453 59.6352 38.7848 59.6941 39.9324C59.6992 40.0387 59.6941 40.145 59.6941 40.2512H59.6967ZM59.3613 40.3097C59.346 40.1051 59.3383 39.9351 59.3178 39.7677C59.1924 38.7927 58.5191 38.1445 57.5923 38.1047C56.6732 38.0648 55.9436 38.628 55.7567 39.5791C55.6876 39.9271 55.6748 40.2964 55.7081 40.6497C55.7977 41.6327 56.4838 42.3075 57.3901 42.3579C58.3578 42.4111 59.0567 41.8665 59.282 40.8729C59.3255 40.6789 59.3383 40.4744 59.3613 40.3097Z" fill="black"/>
<path id="Vector_10" d="M103.917 41.9896V37.8665H104.204V42.598C103.983 42.7043 103.896 42.5289 103.794 42.3881C102.936 41.198 102.079 40.0078 101.219 38.8203C101.16 38.7379 101.096 38.6555 100.991 38.5147V42.5927C100.878 42.6086 100.794 42.6219 100.686 42.6379V37.8772C100.886 37.7789 100.973 37.9303 101.07 38.0658C101.935 39.2639 102.798 40.4621 103.663 41.6576C103.727 41.7479 103.797 41.8329 103.917 41.987V41.9896Z" fill="black"/>
<path id="Vector_11" d="M113.563 40.5092V42.6106H113.223V37.8552C113.906 37.8738 114.6 37.741 115.273 37.988C115.739 38.1581 115.964 38.5273 115.982 39.0347C116.003 39.59 115.775 39.9991 115.296 40.2462C115.132 40.3312 114.951 40.371 114.741 40.4454C115.284 41.1547 115.824 41.8614 116.379 42.5867C116.131 42.6637 115.975 42.6053 115.831 42.4087C115.473 41.9172 115.063 41.4629 114.741 40.9502C114.454 40.4959 114.096 40.379 113.566 40.5039L113.563 40.5092ZM113.584 40.2727C114.103 40.193 114.605 40.1744 115.071 40.031C115.501 39.9008 115.68 39.4651 115.627 38.9816C115.58 38.5645 115.348 38.2696 114.902 38.2006C114.475 38.1315 114.037 38.1421 113.584 38.1155V40.2727Z" fill="black"/>
<path id="Vector_12" d="M63.058 40.5076V42.609H62.7175V37.8908C63.2884 37.8908 63.8491 37.843 64.4021 37.9041C65.0651 37.9732 65.4235 38.369 65.4645 38.9376C65.5157 39.6389 65.2059 40.1224 64.5608 40.3403C64.4635 40.3722 64.3637 40.3961 64.2203 40.4386C64.7707 41.1585 65.3109 41.8652 65.8639 42.5878C65.6181 42.6701 65.4619 42.6117 65.3186 42.4125C64.9627 41.921 64.5505 41.4693 64.228 40.9566C63.9412 40.5023 63.588 40.3801 63.058 40.5076ZM63.0708 40.2021C63.3627 40.2021 63.6315 40.234 63.89 40.1942C64.1768 40.149 64.4763 40.0799 64.7272 39.9365C65.0626 39.7478 65.1522 39.3865 65.1189 39.0013C65.0882 38.6533 64.932 38.3983 64.612 38.2707C64.1128 38.0688 63.5956 38.1432 63.0708 38.1432V40.2048V40.2021Z" fill="black"/>
<path id="Vector_13" d="M49.2593 42.5904C49.0058 42.6781 48.8522 42.601 48.7114 42.4097C48.3453 41.9129 47.9357 41.448 47.6029 40.93C47.3162 40.4837 46.9603 40.3933 46.4688 40.5102V42.6063C46.3382 42.617 46.2435 42.6249 46.1257 42.6329V37.8164C46.7478 37.8536 47.3699 37.8509 47.9792 37.9386C48.4631 38.0103 48.7805 38.3451 48.8522 38.8737C48.9239 39.3971 48.7882 39.8487 48.3427 40.1436C48.1405 40.2765 47.9024 40.3535 47.6439 40.473C48.1712 41.1638 48.7088 41.8704 49.2593 42.5904ZM46.4662 40.1941C46.8144 40.1941 47.1446 40.2313 47.4621 40.1808C47.7155 40.141 47.9869 40.0427 48.1891 39.8859C48.7421 39.4529 48.6064 38.4487 47.9562 38.2627C47.4877 38.1299 46.9808 38.1485 46.4688 38.0954V40.1941H46.4662Z" fill="black"/>
<path id="Vector_14" d="M97.5269 38.3546C97.4271 38.6203 97.2914 38.5618 97.1353 38.4582C96.5669 38.0757 95.9499 38.0119 95.3099 38.2005C94.332 38.4874 93.9403 39.3907 93.9966 40.3551C94.0965 42.0659 95.6351 42.9214 97.0994 42.1058C97.1967 42.05 97.2863 41.8906 97.294 41.771C97.3196 41.4363 97.3042 41.0989 97.3042 40.7695C96.683 40.6579 96.3698 40.5596 96.3647 40.4746H97.6114C97.6114 41.0086 97.614 41.5346 97.6063 42.0606C97.6063 42.1217 97.5577 42.2041 97.5065 42.2386C96.5055 42.9426 94.739 42.855 94.0145 41.6834C93.1467 40.2754 93.756 38.3094 95.2229 37.9003C96.0472 37.6692 96.8408 37.7595 97.5269 38.3573V38.3546Z" fill="black"/>
<path id="Vector_15" d="M79.55 42.3183C80.2797 42.3183 80.9939 42.3236 81.7082 42.3157C81.9207 42.3157 81.9898 42.39 81.9181 42.6105H79.1865V37.8711H81.9002C81.9412 38.15 81.9412 38.1527 81.6903 38.1554C80.9863 38.1554 80.2797 38.1554 79.5526 38.1554V40.0575H81.4855C81.5879 40.2807 81.5162 40.3444 81.3191 40.3444C80.7379 40.3391 80.1568 40.3444 79.5526 40.3444V42.321L79.55 42.3183Z" fill="black"/>
<path id="Vector_16" d="M107.529 37.8613H110.24C110.31 38.0739 110.258 38.1615 110.038 38.1589C109.324 38.1509 108.61 38.1562 107.875 38.1562V40.061H109.81C109.91 40.2842 109.838 40.3479 109.644 40.3453C109.063 40.34 108.482 40.3453 107.877 40.3453V42.3218C108.046 42.3218 108.226 42.3218 108.405 42.3218C108.948 42.3218 109.49 42.3298 110.03 42.3192C110.24 42.3165 110.315 42.3856 110.246 42.6141H107.532V37.8666L107.529 37.8613Z" fill="black"/>
<path id="Vector_17" d="M40.4116 37.8633H43.1227C43.197 38.0838 43.1304 38.1608 42.9179 38.1582C42.3138 38.1502 41.7096 38.1555 41.108 38.1555C40.9979 38.1555 40.8878 38.1555 40.7572 38.1555V40.0577H42.7003C42.7925 40.3047 42.6952 40.3472 42.516 40.3472C42.0347 40.3419 41.5534 40.3472 41.0747 40.3472C40.9748 40.3472 40.875 40.3472 40.7572 40.3472V42.3185H43.1407C43.1611 42.353 43.1791 42.3875 43.1995 42.4221C43.1253 42.4912 43.0536 42.6213 42.9794 42.6213C42.132 42.6346 41.2846 42.6293 40.4116 42.6293V37.8659V37.8633Z" fill="black"/>
<path id="Vector_18" d="M85.8299 42.6808C85.3716 42.6808 84.9646 42.5347 84.6343 42.1973C84.5805 42.1415 84.5831 42.0273 84.5601 41.9396C84.6548 41.9449 84.7802 41.9131 84.8366 41.9635C85.2666 42.3434 85.7479 42.4763 86.2932 42.3089C86.7208 42.1761 86.9793 41.8041 86.9972 41.3339C87.0126 40.9115 86.8334 40.6485 86.3751 40.4599C86.1012 40.3456 85.8145 40.2633 85.538 40.1544C84.9082 39.9073 84.6497 39.5141 84.706 38.911C84.7597 38.3399 85.1642 37.9175 85.7787 37.8165C86.242 37.7421 86.6798 37.8245 87.0484 38.1433C87.1099 38.1964 87.1048 38.3266 87.1329 38.4222C87.0459 38.4143 86.9358 38.4408 86.8744 38.393C86.4904 38.1008 86.0756 38.0158 85.6276 38.1698C85.2743 38.292 85.0746 38.5551 85.0388 38.9456C85.0055 39.3228 85.1847 39.5832 85.4945 39.7373C85.7607 39.8701 86.0449 39.9604 86.324 40.0667C87.156 40.3828 87.4427 40.7973 87.3147 41.4986C87.179 42.2504 86.6337 42.6835 85.8299 42.6808Z" fill="black"/>
<path id="Vector_19" d="M34.132 37.8594H37.6392C37.6956 38.1489 37.6956 38.1543 37.4396 38.1569C37.0018 38.1596 36.5615 38.1569 36.0853 38.1569V42.6068C35.9522 42.6148 35.8574 42.6227 35.7243 42.6307V38.1569C35.2456 38.1569 34.7976 38.149 34.3521 38.1596C34.1524 38.1649 34.0552 38.1118 34.132 37.8594Z" fill="black"/>
<path id="Vector_20" d="M24.2039 37.8613H24.529V42.6114H24.2039V37.8613Z" fill="black"/>
<path id="Vector_21" d="M52.3061 42.6148H51.9963V37.8594H52.3061V42.6148Z" fill="black"/>
<path id="Vector_22" d="M90.6378 42.6158H90.3203V37.8631C90.4202 37.8551 90.5174 37.8498 90.6378 37.8418V42.6158Z" fill="black"/>
</g>
</g>
<defs>
<clipPath id="clip0_396_23693">
<rect width="138.065" height="42.5806" fill="white" transform="translate(0.935547 0.101562)"/>
</clipPath>
</defs>
</svg>
