<svg width="45" height="45" viewBox="0 0 45 45" fill="none" xmlns="http://www.w3.org/2000/svg">
<g id="logo1_black 1" clip-path="url(#clip0_396_23690)">
<path id="Vector" d="M39.4395 36.8864C39.2552 37.1012 39.1263 37.2567 38.9912 37.4061C35.5971 41.1076 31.4435 43.4484 26.5059 44.3958C24.903 44.7027 23.2817 44.8337 21.6522 44.7702C17.1015 44.5943 12.9643 43.1947 9.26522 40.5285C7.8998 39.5443 6.67154 38.4087 5.54973 37.1544C5.40234 36.9887 5.38596 36.8598 5.48627 36.6592C8.76777 30.1197 12.0411 23.5781 15.3164 17.0365C15.3512 16.9649 15.3942 16.8994 15.4618 16.7807C15.5293 16.8994 15.5785 16.9772 15.6174 17.0611C17.1527 20.2224 18.688 23.3837 20.2152 26.5491C20.3216 26.7722 20.4424 26.8581 20.6942 26.8561C22.1906 26.8438 23.687 26.8499 25.1855 26.8499C25.2735 26.8499 25.3595 26.8499 25.5008 26.8499C22.1722 19.9871 18.8661 13.1693 15.5334 6.2921C11.1506 15.0395 6.79846 23.7316 2.42586 32.4666C2.36035 32.3766 2.31941 32.3316 2.2928 32.2763C1.1628 29.9744 0.417652 27.5518 0.147435 25.0022C-0.519919 18.7144 1.09524 13.0669 5.11165 8.17252C8.56306 3.96561 13.0216 1.3813 18.3789 0.372542C20.0248 0.0635707 21.687 -0.0591992 23.3575 0.0267397C28.8416 0.313203 33.6257 2.2898 37.6544 6.03019C40.9891 9.12604 43.1591 12.9114 44.2051 17.3373C44.6801 19.3446 44.8541 21.3867 44.7578 23.4431C44.6186 26.4079 43.9103 29.2357 42.6555 31.9265C42.5306 32.1925 42.3791 32.2682 42.0966 32.2682C33.378 32.262 24.6574 32.262 15.9388 32.2641C15.4106 32.2641 15.4597 32.2047 15.4577 32.7572C15.4577 33.9992 15.4577 35.2433 15.4577 36.4853C15.4577 36.7377 15.5833 36.8645 15.8344 36.8659C23.556 36.8659 31.2777 36.8659 38.9993 36.8659C39.1181 36.8659 39.2368 36.8761 39.4374 36.8843L39.4395 36.8864ZM23.9921 11.43C24.0043 11.475 24.0084 11.5241 24.0289 11.5651C24.6574 12.8582 25.2899 14.1494 25.9163 15.4446C25.9859 15.5878 26.076 15.6083 26.2295 15.5981C26.815 15.5612 27.4087 15.4732 27.9839 15.5387C31.4026 15.9193 33.7219 18.9517 33.4394 22.1437C33.2982 23.7397 32.6452 25.0779 31.4783 26.1645C31.2818 26.3486 31.2756 26.4816 31.3862 26.7026C31.9819 27.9037 32.5633 29.1109 33.1508 30.3161C33.1917 30.4021 33.2429 30.4839 33.29 30.5678C37.2818 28.0572 39.5255 22.334 37.073 17.1184C34.3852 11.4034 28.1784 9.90767 23.99 11.43H23.9921Z" fill="black"/>
</g>
<defs>
<clipPath id="clip0_396_23690">
<rect width="44.7844" height="44.7844" fill="white"/>
</clipPath>
</defs>
</svg>
