<svg width="149" height="74" viewBox="0 0 149 74" fill="none" xmlns="http://www.w3.org/2000/svg">
<g id="Layer_1" clip-path="url(#clip0_396_24937)">
<path id="Vector" d="M27.0861 21.7088C27.0861 22.552 27.1478 23.3657 27.0501 24.1587C27.0192 24.412 26.5974 24.7 26.294 24.8215C23.0844 26.0984 19.808 27.2228 16.6601 28.6351C14.0763 29.7941 11.7154 31.3904 9.94434 33.7136C8.05495 36.1895 8.00351 38.858 9.81918 41.3773C11.34 43.4871 13.4368 44.8943 15.6554 46.1262C19.8525 48.4563 24.3651 49.9641 28.9686 51.1995C37.2754 53.429 45.7452 54.6904 54.2937 55.4729C61.9045 56.1704 69.5289 56.4358 77.1688 56.3439C77.4431 56.3404 77.7174 56.3439 78.0929 56.3439V46.527C78.1615 46.4905 78.2284 46.4558 78.297 46.4194C82.957 50.9635 87.6153 55.5093 92.3594 60.1367C87.6496 64.7329 82.9844 69.2857 78.1546 73.9998V64.0042C77.8306 63.9851 77.6163 63.9573 77.4037 63.9608C69.4038 64.0493 61.4175 63.756 53.4536 62.9909C41.9784 61.8874 30.6454 60.017 19.6931 56.2415C14.6267 54.4943 9.7266 52.3724 5.44202 49.0358C3.38118 47.4309 1.57579 45.5814 0.600231 43.0759C-0.541636 40.1402 0.00186498 37.4127 1.7541 34.89C3.60921 32.218 6.15526 30.3424 8.89677 28.7288C14.4638 25.453 20.5126 23.4143 26.6935 21.7313C26.7929 21.7036 26.9043 21.7174 27.0861 21.707V21.7088Z" fill="white"/>
<path id="Vector_2" d="M115.145 21.6775C115.145 24.1395 115.344 26.6189 115.106 29.0566C114.53 34.9628 110.393 39.1286 104.546 39.9684C99.1301 40.7457 93.6128 38.0026 91.2674 33.3578C90.3432 31.5291 89.9198 29.5667 89.906 27.5281C89.8786 23.6086 89.8786 19.6891 89.9009 15.7713C89.9643 4.68782 101.277 0.591357 108.63 4.52125C112.956 6.83408 115.044 10.5315 115.247 15.3792C115.334 17.4752 115.262 19.578 115.262 21.6775C115.224 21.6775 115.185 21.6775 115.147 21.6775H115.145ZM108.15 21.464H108.157C108.157 19.7585 108.19 18.0512 108.143 16.3474C108.118 15.433 108.052 14.4961 107.836 13.6129C107.156 10.8368 105.345 9.41063 102.616 9.3846C99.984 9.36031 98.0997 10.8021 97.3556 13.4845C97.1567 14.2028 97.0281 14.968 97.023 15.7123C96.9921 19.6561 96.9561 23.5999 97.0453 27.5419C97.0693 28.6263 97.3676 29.768 97.8031 30.7674C98.6604 32.7315 100.279 33.7118 102.403 33.7742C104.574 33.8384 106.256 32.8859 107.185 30.934C107.71 29.8339 108.018 28.5569 108.111 27.3355C108.26 25.3905 108.15 23.4229 108.15 21.4658V21.464Z" fill="white"/>
<path id="Vector_3" d="M121.916 21.5469C124.558 22.3797 127.077 23.1067 129.552 23.9673C134.058 25.534 138.425 27.4218 142.363 30.1926C144.421 31.6397 146.298 33.2828 147.62 35.4793C149.542 38.6753 149.444 41.8487 147.423 44.9493C145.628 47.7028 143.071 49.6114 140.313 51.2579C134.425 54.7714 127.997 56.8899 121.429 58.6163C115.62 60.1431 109.728 61.2501 103.775 62.0152C101.806 62.2686 99.8399 62.5323 97.8014 62.8012C97.7619 62.4785 97.7156 62.2686 97.7156 62.0604C97.7105 60.0182 97.7362 57.9743 97.6968 55.9321C97.6848 55.3075 97.8871 55.1531 98.482 55.0872C106.899 54.1416 115.235 52.7605 123.348 50.2308C127.529 48.9277 131.649 47.4287 135.282 44.9007C136.676 43.9308 138.012 42.7666 139.077 41.4445C141.119 38.9113 140.966 36.0866 138.924 33.5448C136.952 31.0897 134.351 29.4743 131.555 28.2424C128.676 26.9724 125.693 25.94 122.732 24.8712C122.096 24.6422 121.835 24.3872 121.902 23.7035C121.964 23.0685 121.916 22.4231 121.916 21.5486V21.5469Z" fill="white"/>
<path id="Vector_4" d="M81.3214 3.71098C78.5953 7.58709 75.9858 11.2966 73.3472 15.0496C73.474 15.0895 73.5461 15.138 73.6044 15.1259C79.9326 13.8194 85.6831 17.614 86.8884 23.9868C87.8348 29.0011 86.6312 33.4446 82.7753 36.8366C78.7222 40.4021 73.9661 40.9279 68.9889 39.2553C63.5024 37.4109 60.1163 31.6957 60.7061 25.682C60.9924 22.7601 62.0759 20.1523 63.6619 17.7562C66.6777 13.2 69.757 8.68885 72.8242 4.16904C72.9614 3.96777 73.2323 3.73354 73.4432 3.73181C76.0064 3.70231 78.5713 3.71272 81.3214 3.71272V3.71098ZM80.0698 27.4986C80.0818 23.8914 77.4106 21.1309 73.8787 21.1032C70.3708 21.0754 67.6738 23.8341 67.6636 27.4639C67.6533 30.9964 70.3108 33.7552 73.7467 33.7777C77.2734 33.8003 80.0578 31.0363 80.0698 27.5003V27.4986Z" fill="white"/>
<path id="Vector_5" d="M33.0693 28.9123H40.1743C40.4212 30.2413 40.8978 31.4333 41.8939 32.3668C43.5759 33.9439 46.4769 34.2562 48.464 33.0486C50.3517 31.9 51.2981 29.3044 50.662 27.0193C50.1185 25.0691 48.1742 23.5648 45.755 23.3618C44.524 23.2577 43.2776 23.3445 41.9797 23.3445V17.9051C42.446 17.9051 42.8901 17.9676 43.3084 17.8929C44.332 17.709 45.4104 17.6136 46.3465 17.2041C48.3577 16.3245 49.1909 14.3465 48.6423 12.1985C48.1999 10.4652 46.9809 9.42068 45.3641 9.39119C43.4404 9.35475 42.2043 10.2639 41.6848 12.1118C41.5716 12.5125 41.503 12.9238 41.4019 13.3801H34.3689C34.5318 12.3894 34.597 11.416 34.8593 10.4999C36.068 6.26289 39.0856 4.06111 43.1884 3.28554C46.878 2.58805 50.2916 3.26645 53.1549 5.91414C56.6456 9.14308 57.4772 16.1614 51.8073 19.5707C51.6684 19.654 51.5381 19.7564 51.3238 19.9056C51.5655 20.0236 51.7387 20.1242 51.9239 20.1988C59.0837 23.105 59.2843 30.9995 55.6889 35.4152C52.8308 38.9253 49.0246 40.2769 44.644 40.0791C41.7362 39.9472 39.0341 39.0866 36.7641 37.1555C34.2729 35.0353 33.2819 32.2071 33.071 28.9157L33.0693 28.9123Z" fill="white"/>
<path id="Vector_6" d="M117.026 6.813C117.123 2.79115 120.067 -0.0820964 124.007 -0.00228395C127.781 0.0757934 130.74 3.14337 130.67 6.90496C130.596 10.8349 127.513 13.722 123.495 13.6248C119.872 13.5363 116.938 10.4462 117.027 6.813H117.026ZM127.359 6.8078C127.35 4.71185 125.765 3.041 123.803 3.06008C121.823 3.07917 120.282 4.76217 120.316 6.86506C120.35 8.97661 121.915 10.5919 123.909 10.5711C125.821 10.5503 127.368 8.86557 127.359 6.8078Z" fill="white"/>
</g>
<defs>
<clipPath id="clip0_396_24937">
<rect width="149" height="74" fill="white"/>
</clipPath>
</defs>
</svg>
