<svg width="22" height="24" viewBox="0 0 22 24" fill="none" xmlns="http://www.w3.org/2000/svg">
<path id="Vector" d="M12.1562 23.7545C16.0209 22.9811 21.0177 20.2061 21.0177 13.0296C21.0177 6.49881 16.229 2.15027 12.7856 0.152052C12.0215 -0.291503 11.1269 0.291634 11.1269 1.17393V3.43059C11.1269 5.20999 10.3773 8.45816 8.29476 9.80919C7.23139 10.499 6.08309 9.46671 5.95402 8.2075L5.84794 7.17341C5.72444 5.97122 4.49825 5.24146 3.53577 5.97455C1.80664 7.29114 0 9.59667 0 13.0296C0 21.8059 6.53893 24 9.80802 24C9.99829 24 10.1982 23.9944 10.4063 23.9822C8.79176 23.8445 6.18175 22.8445 6.18175 19.6115C6.18175 17.0823 8.03031 15.3714 9.43453 14.5395C9.8121 14.3158 10.2542 14.6061 10.2542 15.0445V15.7716C10.2542 16.3281 10.4697 17.1982 10.983 17.7936C11.5638 18.4674 12.4162 17.7613 12.4852 16.8753C12.507 16.5958 12.7886 16.4177 13.0311 16.5591C13.8241 17.0216 14.8359 18.0098 14.8359 19.6115C14.8359 22.1391 13.4402 23.3017 12.1562 23.7545Z" fill="#DBA398"/>
</svg>
