<svg width="24" height="24" viewBox="0 0 24 24" fill="none" xmlns="http://www.w3.org/2000/svg">
<g id="Group 2608550">
<path id="Vector" d="M18.0807 0.325799C18.6002 0.110519 19.1567 0 19.719 0C20.2814 0 20.8379 0.110879 21.3574 0.325799C21.8769 0.541079 22.3488 0.856437 22.7463 1.25388C23.1437 1.65132 23.4591 2.12328 23.6744 2.64276C23.8893 3.16224 24.0002 3.7188 24.0002 4.28111C24.0002 4.84343 23.8893 5.39999 23.6744 5.91947C23.4591 6.43895 23.1437 6.91091 22.7463 7.30835L22.1246 7.93007L16.0701 1.8756L16.6918 1.25388C17.0892 0.856437 17.5612 0.541079 18.0807 0.325799Z" fill="#DBA398"/>
<path id="Vector_2" d="M14.3729 3.57227L1.98528 15.9599C1.83768 16.1075 1.73112 16.291 1.67603 16.4926L0.0423515 22.4838C-0.0710488 22.8992 0.0470315 23.3434 0.351592 23.648C0.656153 23.9526 1.10039 24.0706 1.51583 23.9572L7.50733 22.3232C7.70893 22.2681 7.89253 22.1616 8.04013 22.014L20.4274 9.62674L14.3729 3.57227Z" fill="#DBA398"/>
</g>
</svg>
