<svg width="24" height="24" viewBox="0 0 24 24" fill="none" xmlns="http://www.w3.org/2000/svg">
<path id="Vector" d="M8.65013 4.07649C10.2033 1.35657 10.9804 -0.00341223 12.1167 6.42908e-06C13.253 0.00342509 13.9959 1.36809 15.4827 4.09691L15.8674 4.80259C16.2896 5.57799 16.5008 5.96591 16.8345 6.22235C17.1681 6.47878 17.5863 6.57491 18.4226 6.7667L19.1841 6.94169C22.1274 7.61772 23.599 7.95573 23.9365 9.08507C24.2738 10.214 23.2529 11.3868 21.2121 13.7319L20.6838 14.3386C20.1037 15.0049 19.8136 15.338 19.6799 15.7511C19.5461 16.1642 19.584 16.6102 19.6594 17.5017L19.7281 18.3137C19.9935 21.4514 20.1267 23.0203 19.1988 23.7151C18.2713 24.4097 16.897 23.7699 14.1492 22.4904L13.4382 22.1595C12.6574 21.7959 12.2669 21.6144 11.8507 21.613C11.4346 21.6116 11.0398 21.791 10.2498 22.1501L9.5308 22.4771C6.75174 23.7402 5.36212 24.372 4.45158 23.6717C3.54103 22.9714 3.71199 21.4036 4.05506 18.268L4.1439 17.4567C4.24144 16.5656 4.28998 16.1201 4.1663 15.7063C4.04289 15.2929 3.76106 14.9578 3.19767 14.288L2.68438 13.6784C0.701017 11.3213 -0.290666 10.1427 0.0746901 9.01561C0.439594 7.88875 1.91969 7.55898 4.87947 6.90085L5.64519 6.73062C6.48613 6.5433 6.90673 6.44987 7.24668 6.1956C7.58663 5.94132 7.80716 5.55491 8.24866 4.78181L8.65045 4.07811L8.65013 4.07649Z" fill="#DBA398"/>
</svg>
